<?xml version="1.0" encoding="utf-8"?>
<svg
	version="1.1"
	xmlns="http://www.w3.org/2000/svg"
	xmlns:xlink="http://www.w3.org/1999/xlink"
	x="0%" y="0%"
	width="100%" height="100%"
	viewBox="0 0 24.0 24.0"
	enable-background="new 0 0 24.0 24.0"
	xml:space="preserve">
<defs>
	<radialGradient id="fillGrad55" cx="32.422%" cy="95.475%" fx="32.422%" fy="95.475%" r="48.637%">
   		<stop offset="0.000%" style="stop-color:rgb(248,147,0);stop-opacity:1.000" />
		<stop offset="47.970%" style="stop-color:rgb(248,175,0);stop-opacity:1.000" />
		<stop offset="100.000%" style="stop-color:rgb(248,200,32);stop-opacity:1.000" />
	</radialGradient>

	<radialGradient id="fillGrad78" cx="3.385%" cy="48.704%" fx="3.385%" fy="48.704%" r="58.109%">
   		<stop offset="0.000%" style="stop-color:rgb(248,162,0);stop-opacity:1.000" />
		<stop offset="50.000%" style="stop-color:rgb(248,175,0);stop-opacity:1.000" />
		<stop offset="100.000%" style="stop-color:rgb(248,200,32);stop-opacity:1.000" />
	</radialGradient>

	<radialGradient id="fillGrad91" cx="3.385%" cy="48.704%" fx="3.385%" fy="48.704%" r="58.109%">
   		<stop offset="0.000%" style="stop-color:rgb(248,162,0);stop-opacity:1.000" />
		<stop offset="50.000%" style="stop-color:rgb(248,175,0);stop-opacity:1.000" />
		<stop offset="100.000%" style="stop-color:rgb(248,200,32);stop-opacity:1.000" />
	</radialGradient>

	<radialGradient id="fillGrad102" cx="3.385%" cy="48.704%" fx="3.385%" fy="48.704%" r="58.109%">
   		<stop offset="0.000%" style="stop-color:rgb(248,162,0);stop-opacity:1.000" />
		<stop offset="50.000%" style="stop-color:rgb(248,175,0);stop-opacity:1.000" />
		<stop offset="100.000%" style="stop-color:rgb(248,200,32);stop-opacity:1.000" />
	</radialGradient>

	<radialGradient id="fillGrad113" cx="3.385%" cy="48.704%" fx="3.385%" fy="48.704%" r="58.109%">
   		<stop offset="0.000%" style="stop-color:rgb(248,162,0);stop-opacity:1.000" />
		<stop offset="50.000%" style="stop-color:rgb(248,175,0);stop-opacity:1.000" />
		<stop offset="100.000%" style="stop-color:rgb(248,200,32);stop-opacity:1.000" />
	</radialGradient>

</defs>
	<path
		fill="#FF0000"
		fill-opacity="1.000"
		fill-rule="nonzero"
		stroke="#FF0000"
		stroke-opacity="1.000"
		stroke-width="0.24000001"
		stroke-linejoin="round"
		stroke-linecap="round"
		d="M16.86,2.95C20.00,2.95,22.55,5.50,22.55,8.64C22.55,11.77,20.00,14.32,16.86,14.32C13.72,14.32,11.18,11.77,11.18,8.64C11.18,5.50,13.72,2.95,16.86,2.95z"/>
	<path
		fill="#FF0000"
		fill-opacity="1.000"
		fill-rule="nonzero"
		stroke="#FF0000"
		stroke-opacity="1.000"
		stroke-width="0.24000001"
		stroke-linejoin="round"
		stroke-linecap="round"
		d="M6.85,2.80C9.99,2.80,12.54,5.34,12.54,8.48C12.54,11.62,9.99,14.16,6.85,14.16C3.72,14.16,1.17,11.62,1.17,8.48C1.17,5.34,3.72,2.80,6.85,2.80z"/>
	<path
		fill="#FF0000"
		fill-opacity="1.000"
		fill-rule="nonzero"
		stroke="#FF0000"
		stroke-opacity="1.000"
		stroke-width="0.24000001"
		stroke-linejoin="round"
		stroke-linecap="round"
		d="M12.00,21.57L18.48,15.06Q21.00,12.54,21.29,12.14Q23.59,1.85,13.91,3.83Q12.97,4.41,12.00,5.55Q11.02,4.41,10.14,3.90Q0.40,1.85,2.55,12.11Q3.13,12.82,5.51,15.06L12.00,21.57z"/>
	<path
		transform = "rotate(-0.00 11.93 11.62)"
		fill="url(#fillGrad55)"
		fill-opacity="1.0"
		fill-rule="nonzero"
		stroke="#F88808"
		stroke-opacity="1.000"
		stroke-width="0.24"
		stroke-linejoin="round"
		stroke-linecap="round"
		d="M11.31,7.60Q12.05,7.18,12.71,7.93Q13.01,8.32,12.84,9.07Q12.52,10.01,12.51,10.76Q13.13,10.49,14.80,10.56Q15.30,10.56,15.38,11.06Q15.45,11.54,15.13,11.90Q15.82,12.04,15.80,12.66Q15.80,13.11,15.24,13.30Q15.72,13.49,15.62,14.03Q15.53,14.47,14.90,14.65Q15.30,14.75,15.25,15.20Q15.24,15.67,14.68,15.74Q13.67,15.89,10.88,15.67Q9.47,15.53,9.14,15.11Q8.18,15.11,8.06,14.48L8.06,11.90Q8.06,11.35,8.82,11.25Q10.00,10.76,10.51,10.28Q11.11,9.68,11.22,8.72Q11.31,8.09,11.31,7.60z"/>
	<path
		fill="#F88808"
		fill-opacity="1.000"
		fill-rule="nonzero"
		stroke="#F88808"
		stroke-opacity="1.000"
		stroke-width="0.24"
		stroke-linejoin="round"
		stroke-linecap="round"
		d="M10.93,13.87Q12.65,13.09,12.04,11.26Q12.32,10.80,13.01,10.80C12.98,11.13,12.95,11.46,12.88,11.77C12.82,12.09,12.72,12.39,12.63,12.69Q12.13,13.82,10.93,13.87z"/>
	<path
		fill="#F88808"
		fill-opacity="1.000"
		fill-rule="nonzero"
		stroke="#F88808"
		stroke-opacity="1.000"
		stroke-width="0.024"
		stroke-linejoin="round"
		stroke-linecap="square"
		d="M9.33,15.21L8.96,13.92L8.88,15.05z"/>
	<path
		transform = "rotate(-0.00 13.78 11.25)"
		fill="url(#fillGrad78)"
		fill-opacity="1.0"
		fill-rule="nonzero"
		stroke="#F88808"
		stroke-opacity="1.000"
		stroke-width="0.24"
		stroke-linejoin="round"
		stroke-linecap="round"
		d="M12.17,11.16Q12.47,10.77,12.97,10.70Q13.43,10.59,14.70,10.59Q15.20,10.57,15.33,10.91Q15.53,11.45,15.20,11.74Q14.87,11.97,13.21,11.91Q12.66,11.92,12.30,11.63Q12.11,11.53,12.17,11.16z"/>
	<path
		transform = "rotate(-0.00 14.03 12.64)"
		fill="url(#fillGrad91)"
		fill-opacity="1.0"
		fill-rule="nonzero"
		stroke="#F88808"
		stroke-opacity="1.000"
		stroke-width="0.24"
		stroke-linejoin="round"
		stroke-linecap="round"
		d="M12.38,12.33Q12.78,11.98,13.65,11.98Q14.55,11.93,15.20,11.98Q15.83,12.05,15.77,12.63Q15.77,13.31,15.00,13.31Q13.91,13.32,12.99,13.23Q12.61,13.18,12.43,13.00Q12.17,12.72,12.38,12.33z"/>
	<path
		transform = "rotate(-0.00 13.88 13.93)"
		fill="url(#fillGrad102)"
		fill-opacity="1.0"
		fill-rule="nonzero"
		stroke="#F88808"
		stroke-opacity="1.000"
		stroke-width="0.23999998"
		stroke-linejoin="round"
		stroke-linecap="round"
		d="M12.22,13.69Q12.11,13.93,12.18,14.11Q12.50,14.53,14.55,14.59Q15.35,14.62,15.52,14.19Q15.80,13.60,15.20,13.43Q14.70,13.32,13.24,13.27Q12.63,13.27,12.22,13.69z"/>
	<path
		transform = "rotate(-0.00 13.72 15.15)"
		fill="url(#fillGrad113)"
		fill-opacity="1.0"
		fill-rule="nonzero"
		stroke="#F88808"
		stroke-opacity="1.000"
		stroke-width="0.23999998"
		stroke-linejoin="round"
		stroke-linecap="round"
		d="M12.27,14.77Q12.66,14.41,13.43,14.53Q14.03,14.58,14.73,14.69Q15.47,14.76,15.20,15.48Q15.00,15.96,13.37,15.69Q12.63,15.56,12.22,15.30Q12.11,14.98,12.27,14.77"/>
</svg>