<?xml version="1.0" encoding="utf-8"?>
<svg
	version="1.1"
	xmlns="http://www.w3.org/2000/svg"
	xmlns:xlink="http://www.w3.org/1999/xlink"
	x="0%" y="0%"
	width="100%" height="100%"
	viewBox="0 0 36.0 24.0"
	enable-background="new 0 0 36.0 24.0"
	xml:space="preserve">
<defs>
	<radialGradient id="fillGrad59" cx="0.152%" cy="25.523%" fx="0.152%" fy="25.523%" r="95.734%">
   		<stop offset="0.000%" style="stop-color:rgb(248,165,0);stop-opacity:1.000" />
		<stop offset="82.137%" style="stop-color:rgb(248,200,32);stop-opacity:1.000" />
		<stop offset="11.318%" style="stop-color:rgb(248,200,32);stop-opacity:1.000" />
		<stop offset="34.664%" style="stop-color:rgb(248,200,32);stop-opacity:1.000" />
		<stop offset="53.019%" style="stop-color:rgb(248,200,32);stop-opacity:1.000" />
		<stop offset="100.000%" style="stop-color:rgb(248,162,0);stop-opacity:1.000" />
	</radialGradient>

	<radialGradient id="fillGrad82" cx="32.917%" cy="19.523%" fx="32.917%" fy="19.523%" r="71.067%">
   		<stop offset="0.000%" style="stop-color:rgb(248,200,32);stop-opacity:1.000" />
		<stop offset="64.386%" style="stop-color:rgb(248,200,32);stop-opacity:1.000" />
		<stop offset="100.000%" style="stop-color:rgb(248,176,0);stop-opacity:1.000" />
	</radialGradient>

	<radialGradient id="fillGrad93" cx="12.893%" cy="83.170%" fx="12.893%" fy="83.170%" r="56.808%">
   		<stop offset="0.000%" style="stop-color:rgb(248,167,0);stop-opacity:1.000" />
		<stop offset="50.000%" style="stop-color:rgb(248,173,0);stop-opacity:1.000" />
		<stop offset="100.000%" style="stop-color:rgb(248,200,32);stop-opacity:1.000" />
	</radialGradient>

	<radialGradient id="fillGrad104" cx="12.893%" cy="83.170%" fx="12.893%" fy="83.170%" r="56.808%">
   		<stop offset="0.000%" style="stop-color:rgb(248,167,0);stop-opacity:1.000" />
		<stop offset="50.000%" style="stop-color:rgb(248,173,0);stop-opacity:1.000" />
		<stop offset="100.000%" style="stop-color:rgb(248,200,32);stop-opacity:1.000" />
	</radialGradient>

	<radialGradient id="fillGrad115" cx="12.893%" cy="83.170%" fx="12.893%" fy="83.170%" r="56.808%">
   		<stop offset="0.000%" style="stop-color:rgb(248,167,0);stop-opacity:1.000" />
		<stop offset="50.000%" style="stop-color:rgb(248,173,0);stop-opacity:1.000" />
		<stop offset="100.000%" style="stop-color:rgb(248,200,32);stop-opacity:1.000" />
	</radialGradient>

	<radialGradient id="fillGrad126" cx="12.893%" cy="83.170%" fx="12.893%" fy="83.170%" r="56.808%">
   		<stop offset="0.000%" style="stop-color:rgb(248,167,0);stop-opacity:1.000" />
		<stop offset="50.000%" style="stop-color:rgb(248,173,0);stop-opacity:1.000" />
		<stop offset="100.000%" style="stop-color:rgb(248,200,32);stop-opacity:1.000" />
	</radialGradient>

	<radialGradient id="fillGrad165" cx="32.422%" cy="95.475%" fx="32.422%" fy="95.475%" r="48.637%">
   		<stop offset="0.000%" style="stop-color:rgb(248,147,0);stop-opacity:1.000" />
		<stop offset="47.970%" style="stop-color:rgb(248,175,0);stop-opacity:1.000" />
		<stop offset="100.000%" style="stop-color:rgb(248,200,32);stop-opacity:1.000" />
	</radialGradient>

	<radialGradient id="fillGrad188" cx="3.385%" cy="48.704%" fx="3.385%" fy="48.704%" r="58.109%">
   		<stop offset="0.000%" style="stop-color:rgb(248,162,0);stop-opacity:1.000" />
		<stop offset="50.000%" style="stop-color:rgb(248,175,0);stop-opacity:1.000" />
		<stop offset="100.000%" style="stop-color:rgb(248,200,32);stop-opacity:1.000" />
	</radialGradient>

	<radialGradient id="fillGrad201" cx="3.385%" cy="48.704%" fx="3.385%" fy="48.704%" r="58.109%">
   		<stop offset="0.000%" style="stop-color:rgb(248,162,0);stop-opacity:1.000" />
		<stop offset="50.000%" style="stop-color:rgb(248,175,0);stop-opacity:1.000" />
		<stop offset="100.000%" style="stop-color:rgb(248,200,32);stop-opacity:1.000" />
	</radialGradient>

	<radialGradient id="fillGrad212" cx="3.385%" cy="48.704%" fx="3.385%" fy="48.704%" r="58.109%">
   		<stop offset="0.000%" style="stop-color:rgb(248,162,0);stop-opacity:1.000" />
		<stop offset="50.000%" style="stop-color:rgb(248,175,0);stop-opacity:1.000" />
		<stop offset="100.000%" style="stop-color:rgb(248,200,32);stop-opacity:1.000" />
	</radialGradient>

	<radialGradient id="fillGrad223" cx="3.385%" cy="48.704%" fx="3.385%" fy="48.704%" r="58.109%">
   		<stop offset="0.000%" style="stop-color:rgb(248,162,0);stop-opacity:1.000" />
		<stop offset="50.000%" style="stop-color:rgb(248,175,0);stop-opacity:1.000" />
		<stop offset="100.000%" style="stop-color:rgb(248,200,32);stop-opacity:1.000" />
	</radialGradient>

	<radialGradient id="fillGrad242" cx="49.935%" cy="8.259%" fx="49.935%" fy="8.259%" r="89.111%">
   		<stop offset="0.000%" style="stop-color:rgb(255,255,255);stop-opacity:1.000" />
		<stop offset="50.000%" style="stop-color:rgb(255,255,255);stop-opacity:1.000" />
		<stop offset="100.000%" style="stop-color:rgb(231,231,231);stop-opacity:1.000" />
	</radialGradient>

	<radialGradient id="fillGrad251" cx="50.886%" cy="-1.730%" fx="50.886%" fy="-1.730%" r="103.567%">
   		<stop offset="0.000%" style="stop-color:rgb(236,184,145);stop-opacity:1.000" />
		<stop offset="52.319%" style="stop-color:rgb(236,184,145);stop-opacity:1.000" />
		<stop offset="100.000%" style="stop-color:rgb(212,143,96);stop-opacity:1.000" />
	</radialGradient>

	<style type="text/css">
		@font-face {
			font-family: 'lora'; 
			src: url('./lora.ttf');
		}
	</style>
	<radialGradient id="fillGrad303" cx="51.675%" cy="11.548%" fx="51.675%" fy="11.548%" r="83.165%">
   		<stop offset="0.000%" style="stop-color:rgb(242,193,155);stop-opacity:1.000" />
		<stop offset="33.333%" style="stop-color:rgb(242,193,155);stop-opacity:1.000" />
		<stop offset="68.881%" style="stop-color:rgb(242,193,155);stop-opacity:1.000" />
		<stop offset="100.000%" style="stop-color:rgb(212,143,96);stop-opacity:1.000" />
	</radialGradient>

	<radialGradient id="fillGrad359" cx="32.422%" cy="95.475%" fx="32.422%" fy="95.475%" r="48.637%">
   		<stop offset="0.000%" style="stop-color:rgb(248,147,0);stop-opacity:1.000" />
		<stop offset="47.970%" style="stop-color:rgb(248,175,0);stop-opacity:1.000" />
		<stop offset="100.000%" style="stop-color:rgb(248,200,32);stop-opacity:1.000" />
	</radialGradient>

	<radialGradient id="fillGrad382" cx="3.385%" cy="48.704%" fx="3.385%" fy="48.704%" r="58.109%">
   		<stop offset="0.000%" style="stop-color:rgb(248,162,0);stop-opacity:1.000" />
		<stop offset="50.000%" style="stop-color:rgb(248,175,0);stop-opacity:1.000" />
		<stop offset="100.000%" style="stop-color:rgb(248,200,32);stop-opacity:1.000" />
	</radialGradient>

	<radialGradient id="fillGrad395" cx="3.385%" cy="48.704%" fx="3.385%" fy="48.704%" r="58.109%">
   		<stop offset="0.000%" style="stop-color:rgb(248,162,0);stop-opacity:1.000" />
		<stop offset="50.000%" style="stop-color:rgb(248,175,0);stop-opacity:1.000" />
		<stop offset="100.000%" style="stop-color:rgb(248,200,32);stop-opacity:1.000" />
	</radialGradient>

	<radialGradient id="fillGrad406" cx="3.385%" cy="48.704%" fx="3.385%" fy="48.704%" r="58.109%">
   		<stop offset="0.000%" style="stop-color:rgb(248,162,0);stop-opacity:1.000" />
		<stop offset="50.000%" style="stop-color:rgb(248,175,0);stop-opacity:1.000" />
		<stop offset="100.000%" style="stop-color:rgb(248,200,32);stop-opacity:1.000" />
	</radialGradient>

	<radialGradient id="fillGrad417" cx="3.385%" cy="48.704%" fx="3.385%" fy="48.704%" r="58.109%">
   		<stop offset="0.000%" style="stop-color:rgb(248,162,0);stop-opacity:1.000" />
		<stop offset="50.000%" style="stop-color:rgb(248,175,0);stop-opacity:1.000" />
		<stop offset="100.000%" style="stop-color:rgb(248,200,32);stop-opacity:1.000" />
	</radialGradient>

	<linearGradient id="fillGrad418" x1="0.000%" y1="50.000%" x2="100.000%" y2="50.000%">
   		<stop offset="0.000%" style="stop-color:rgb(0,0,0);stop-opacity:1.000" />
		<stop offset="50.000%" style="stop-color:rgb(0,0,0);stop-opacity:1.000" />
		<stop offset="100.000%" style="stop-color:rgb(0,0,0);stop-opacity:1.000" />
	</linearGradient>

	<linearGradient id="fillGrad419" x1="0.000%" y1="50.000%" x2="100.000%" y2="50.000%">
   		<stop offset="0.000%" style="stop-color:rgb(0,0,0);stop-opacity:1.000" />
		<stop offset="50.000%" style="stop-color:rgb(0,0,0);stop-opacity:1.000" />
		<stop offset="100.000%" style="stop-color:rgb(0,0,0);stop-opacity:1.000" />
	</linearGradient>

	<radialGradient id="fillGrad440" cx="50.325%" cy="71.604%" fx="50.325%" fy="71.604%" r="64.957%">
   		<stop offset="0.000%" style="stop-color:rgb(212,143,96);stop-opacity:1.000" />
		<stop offset="50.000%" style="stop-color:rgb(212,84,0);stop-opacity:0.196" />
		<stop offset="100.000%" style="stop-color:rgb(212,85,0);stop-opacity:0.000" />
	</radialGradient>

	<radialGradient id="fillGrad489" cx="50.000%" cy="50.000%" fx="50.000%" fy="50.000%" r="50.000%">
   		<stop offset="0.000%" style="stop-color:rgb(164,68,34);stop-opacity:1.000" />
		<stop offset="50.000%" style="stop-color:rgb(164,68,34);stop-opacity:1.000" />
		<stop offset="100.000%" style="stop-color:rgb(164,68,34);stop-opacity:1.000" />
	</radialGradient>

	<radialGradient id="stkGrad489" cx="50.000%" cy="50.000%" fx="50.000%" fy="50.000%" r="50.000%">
   		<stop offset="0.000%" style="stop-color:rgb(164,68,34);stop-opacity:1.000" />
		<stop offset="50.000%" style="stop-color:rgb(164,68,34);stop-opacity:1.000" />
		<stop offset="100.000%" style="stop-color:rgb(164,68,34);stop-opacity:1.000" />
	</radialGradient>

	<radialGradient id="fillGrad494" cx="50.000%" cy="50.000%" fx="50.000%" fy="50.000%" r="50.000%">
   		<stop offset="0.000%" style="stop-color:rgb(134,55,28);stop-opacity:1.000" />
		<stop offset="50.000%" style="stop-color:rgb(134,55,28);stop-opacity:1.000" />
		<stop offset="100.000%" style="stop-color:rgb(134,55,28);stop-opacity:1.000" />
	</radialGradient>

	<radialGradient id="stkGrad494" cx="50.000%" cy="50.000%" fx="50.000%" fy="50.000%" r="50.000%">
   		<stop offset="0.000%" style="stop-color:rgb(134,55,28);stop-opacity:1.000" />
		<stop offset="50.000%" style="stop-color:rgb(134,55,28);stop-opacity:1.000" />
		<stop offset="100.000%" style="stop-color:rgb(134,55,28);stop-opacity:1.000" />
	</radialGradient>

	<radialGradient id="fillGrad497" cx="50.000%" cy="50.000%" fx="50.000%" fy="50.000%" r="50.000%">
   		<stop offset="0.000%" style="stop-color:rgb(134,55,28);stop-opacity:1.000" />
		<stop offset="50.000%" style="stop-color:rgb(134,55,28);stop-opacity:1.000" />
		<stop offset="100.000%" style="stop-color:rgb(134,55,28);stop-opacity:1.000" />
	</radialGradient>

	<radialGradient id="stkGrad497" cx="50.000%" cy="50.000%" fx="50.000%" fy="50.000%" r="50.000%">
   		<stop offset="0.000%" style="stop-color:rgb(134,55,28);stop-opacity:1.000" />
		<stop offset="50.000%" style="stop-color:rgb(134,55,28);stop-opacity:1.000" />
		<stop offset="100.000%" style="stop-color:rgb(134,55,28);stop-opacity:1.000" />
	</radialGradient>

	<radialGradient id="fillGrad500" cx="50.000%" cy="50.000%" fx="50.000%" fy="50.000%" r="50.000%">
   		<stop offset="0.000%" style="stop-color:rgb(134,55,28);stop-opacity:1.000" />
		<stop offset="50.000%" style="stop-color:rgb(134,55,28);stop-opacity:1.000" />
		<stop offset="100.000%" style="stop-color:rgb(134,55,28);stop-opacity:1.000" />
	</radialGradient>

	<radialGradient id="stkGrad500" cx="50.000%" cy="50.000%" fx="50.000%" fy="50.000%" r="50.000%">
   		<stop offset="0.000%" style="stop-color:rgb(134,55,28);stop-opacity:1.000" />
		<stop offset="50.000%" style="stop-color:rgb(134,55,28);stop-opacity:1.000" />
		<stop offset="100.000%" style="stop-color:rgb(134,55,28);stop-opacity:1.000" />
	</radialGradient>

	<radialGradient id="fillGrad503" cx="50.000%" cy="50.000%" fx="50.000%" fy="50.000%" r="50.000%">
   		<stop offset="0.000%" style="stop-color:rgb(134,55,28);stop-opacity:1.000" />
		<stop offset="50.000%" style="stop-color:rgb(134,55,28);stop-opacity:1.000" />
		<stop offset="100.000%" style="stop-color:rgb(134,55,28);stop-opacity:1.000" />
	</radialGradient>

	<radialGradient id="stkGrad503" cx="50.000%" cy="50.000%" fx="50.000%" fy="50.000%" r="50.000%">
   		<stop offset="0.000%" style="stop-color:rgb(134,55,28);stop-opacity:1.000" />
		<stop offset="50.000%" style="stop-color:rgb(134,55,28);stop-opacity:1.000" />
		<stop offset="100.000%" style="stop-color:rgb(134,55,28);stop-opacity:1.000" />
	</radialGradient>

	<radialGradient id="fillGrad506" cx="50.000%" cy="50.000%" fx="50.000%" fy="50.000%" r="50.000%">
   		<stop offset="0.000%" style="stop-color:rgb(134,55,28);stop-opacity:1.000" />
		<stop offset="50.000%" style="stop-color:rgb(134,55,28);stop-opacity:1.000" />
		<stop offset="100.000%" style="stop-color:rgb(134,55,28);stop-opacity:1.000" />
	</radialGradient>

	<radialGradient id="stkGrad506" cx="50.000%" cy="50.000%" fx="50.000%" fy="50.000%" r="50.000%">
   		<stop offset="0.000%" style="stop-color:rgb(134,55,28);stop-opacity:1.000" />
		<stop offset="50.000%" style="stop-color:rgb(134,55,28);stop-opacity:1.000" />
		<stop offset="100.000%" style="stop-color:rgb(134,55,28);stop-opacity:1.000" />
	</radialGradient>

	<radialGradient id="fillGrad509" cx="50.000%" cy="50.000%" fx="50.000%" fy="50.000%" r="50.000%">
   		<stop offset="0.000%" style="stop-color:rgb(134,55,28);stop-opacity:1.000" />
		<stop offset="50.000%" style="stop-color:rgb(134,55,28);stop-opacity:1.000" />
		<stop offset="100.000%" style="stop-color:rgb(134,55,28);stop-opacity:1.000" />
	</radialGradient>

	<radialGradient id="stkGrad509" cx="50.000%" cy="50.000%" fx="50.000%" fy="50.000%" r="50.000%">
   		<stop offset="0.000%" style="stop-color:rgb(134,55,28);stop-opacity:1.000" />
		<stop offset="50.000%" style="stop-color:rgb(134,55,28);stop-opacity:1.000" />
		<stop offset="100.000%" style="stop-color:rgb(134,55,28);stop-opacity:1.000" />
	</radialGradient>

	<radialGradient id="fillGrad520" cx="50.000%" cy="50.000%" fx="50.000%" fy="50.000%" r="50.000%">
   		<stop offset="0.000%" style="stop-color:rgb(195,118,78);stop-opacity:1.000" />
		<stop offset="50.000%" style="stop-color:rgb(195,118,78);stop-opacity:1.000" />
		<stop offset="100.000%" style="stop-color:rgb(195,118,78);stop-opacity:1.000" />
	</radialGradient>

	<radialGradient id="stkGrad520" cx="50.000%" cy="50.000%" fx="50.000%" fy="50.000%" r="50.000%">
   		<stop offset="0.000%" style="stop-color:rgb(195,118,78);stop-opacity:1.000" />
		<stop offset="50.000%" style="stop-color:rgb(195,118,78);stop-opacity:1.000" />
		<stop offset="100.000%" style="stop-color:rgb(195,118,78);stop-opacity:1.000" />
	</radialGradient>

	<radialGradient id="fillGrad521" cx="50.000%" cy="50.000%" fx="50.000%" fy="50.000%" r="50.000%">
   		<stop offset="0.000%" style="stop-color:rgb(248,200,32);stop-opacity:1.000" />
		<stop offset="50.000%" style="stop-color:rgb(248,200,32);stop-opacity:1.000" />
		<stop offset="100.000%" style="stop-color:rgb(248,200,32);stop-opacity:1.000" />
	</radialGradient>

	<style type="text/css">
		@font-face {
			font-family: 'comfortaa'; 
			src: url('./comfortaa.ttf');
		}
	</style>
	<radialGradient id="fillGrad522" cx="50.000%" cy="50.000%" fx="50.000%" fy="50.000%" r="50.000%">
   		<stop offset="0.000%" style="stop-color:rgb(248,136,8);stop-opacity:1.000" />
		<stop offset="50.000%" style="stop-color:rgb(248,136,8);stop-opacity:1.000" />
		<stop offset="100.000%" style="stop-color:rgb(248,136,8);stop-opacity:1.000" />
	</radialGradient>

	<radialGradient id="fillGrad523" cx="50.000%" cy="50.000%" fx="50.000%" fy="50.000%" r="50.000%">
   		<stop offset="0.000%" style="stop-color:rgb(255,0,0);stop-opacity:1.000" />
		<stop offset="50.000%" style="stop-color:rgb(255,0,0);stop-opacity:1.000" />
		<stop offset="100.000%" style="stop-color:rgb(255,0,0);stop-opacity:1.000" />
	</radialGradient>

</defs>
	<path
		fill="#FF0000"
		fill-opacity="1.000"
		fill-rule="nonzero"
		stroke="#FF0000"
		stroke-opacity="1.000"
		stroke-width="0.15695852"
		stroke-linejoin="round"
		stroke-linecap="round"
		d="M21.25,2.77C23.31,2.77,24.97,4.43,24.97,6.48C24.97,8.53,23.31,10.20,21.25,10.20C19.20,10.20,17.54,8.53,17.54,6.48C17.54,4.43,19.20,2.77,21.25,2.77z"/>
	<path
		fill="#FF0000"
		fill-opacity="1.000"
		fill-rule="nonzero"
		stroke="#FF0000"
		stroke-opacity="1.000"
		stroke-width="0.15695852"
		stroke-linejoin="round"
		stroke-linecap="round"
		d="M14.71,2.66C16.76,2.66,18.42,4.33,18.42,6.38C18.42,8.43,16.76,10.09,14.71,10.09C12.65,10.09,10.99,8.43,10.99,6.38C10.99,4.33,12.65,2.66,14.71,2.66z"/>
	<path
		fill="#FF0000"
		fill-opacity="1.000"
		fill-rule="nonzero"
		stroke="#FF0000"
		stroke-opacity="1.000"
		stroke-width="0.15695852"
		stroke-linejoin="round"
		stroke-linecap="round"
		d="M18.07,14.94L22.31,10.68Q23.96,9.03,24.15,8.77Q25.65,2.04,19.32,3.34Q18.70,3.72,18.07,4.46Q17.43,3.72,16.86,3.38Q10.49,2.04,11.89,8.76Q12.27,9.22,13.83,10.68L18.07,14.94z"/>
	<path
		transform = "rotate(-0.00 17.79 8.94)"
		fill="url(#fillGrad59)"
		fill-opacity="1.0"
		fill-rule="nonzero"
		stroke="#F88808"
		stroke-opacity="1.000"
		stroke-width="0.1569585"
		stroke-linejoin="round"
		stroke-linecap="round"
		d="M18.90,7.91Q19.37,8.39,20.12,9.05Q20.37,9.29,20.18,9.51Q20.00,9.70,19.73,9.58Q19.80,9.89,19.60,9.99Q19.39,10.13,19.12,9.95Q19.19,10.35,18.96,10.44Q18.73,10.53,18.58,10.36Q18.53,10.73,18.29,10.78Q18.08,10.84,17.86,10.63Q17.61,10.92,17.37,10.74Q17.22,10.64,17.26,10.43Q16.95,10.66,16.73,10.44Q16.57,10.28,16.70,10.01Q16.42,10.08,16.28,9.89Q16.13,9.72,16.28,9.51Q15.99,9.58,15.87,9.39Q15.72,9.07,15.99,8.92Q15.20,8.28,15.34,7.85Q15.48,7.43,16.01,7.09Q16.21,6.99,16.58,7.24Q16.83,7.42,17.18,7.24Q17.53,7.04,18.08,7.34z"/>
	<path
		transform = "rotate(-0.00 19.00 8.05)"
		fill="url(#fillGrad82)"
		fill-opacity="1.0"
		fill-rule="nonzero"
		stroke="#F88808"
		stroke-opacity="1.000"
		stroke-width="0.1569585"
		stroke-linejoin="round"
		stroke-linecap="round"
		d="M20.19,7.13Q20.87,7.55,20.80,8.02Q20.74,8.56,20.19,9.05Q19.76,8.72,18.89,7.88Q18.70,7.76,18.49,7.86Q18.07,8.02,17.66,8.24Q17.34,8.36,17.23,8.09Q17.11,7.80,17.35,7.69Q17.68,7.52,18.38,7.23Q18.70,7.13,18.91,7.20Q19.16,7.32,19.36,7.33Q19.59,7.30,19.80,7.11Q20.00,6.97,20.19,7.13z"/>
	<path
		transform = "rotate(-0.00 16.27 9.07)"
		fill="url(#fillGrad93)"
		fill-opacity="1.0"
		fill-rule="nonzero"
		stroke="#F88808"
		stroke-opacity="1.000"
		stroke-width="0.15695849"
		stroke-linejoin="round"
		stroke-linecap="round"
		d="M15.90,9.03Q16.09,8.84,16.29,8.73Q16.50,8.62,16.66,8.81Q16.80,8.99,16.66,9.13Q16.44,9.32,16.19,9.44Q16.00,9.50,15.89,9.36Q15.75,9.16,15.90,9.03z"/>
	<path
		transform = "rotate(-0.00 16.74 9.52)"
		fill="url(#fillGrad104)"
		fill-opacity="1.0"
		fill-rule="nonzero"
		stroke="#F88808"
		stroke-opacity="1.000"
		stroke-width="0.15695849"
		stroke-linejoin="round"
		stroke-linecap="round"
		d="M16.26,9.56Q16.50,9.32,16.83,9.11Q17.06,8.94,17.21,9.12Q17.39,9.30,17.21,9.47Q16.90,9.74,16.59,9.97Q16.39,10.07,16.26,9.93Q16.09,9.74,16.26,9.56"/>
	<path
		transform = "rotate(-0.00 17.20 9.97)"
		fill="url(#fillGrad115)"
		fill-opacity="1.0"
		fill-rule="nonzero"
		stroke="#F88808"
		stroke-opacity="1.000"
		stroke-width="0.15695849"
		stroke-linejoin="round"
		stroke-linecap="round"
		d="M16.70,10.07Q17.02,9.75,17.31,9.49Q17.51,9.30,17.70,9.49Q17.88,9.67,17.70,9.86Q17.48,10.14,17.15,10.42Q16.90,10.64,16.71,10.44Q16.51,10.28,16.70,10.07"/>
	<path
		transform = "rotate(-0.00 17.72 10.36)"
		fill="url(#fillGrad126)"
		fill-opacity="1.0"
		fill-rule="nonzero"
		stroke="#F88808"
		stroke-opacity="1.000"
		stroke-width="0.15695849"
		stroke-linejoin="round"
		stroke-linecap="round"
		d="M17.26,10.49Q17.52,10.16,17.75,9.96Q17.92,9.81,18.06,9.94Q18.26,10.07,18.12,10.26Q17.92,10.56,17.69,10.78Q17.54,10.90,17.38,10.79Q17.21,10.67,17.26,10.49"/>
	<path
		transform = "rotate(-0.00 13.80 5.71)"
		fill="url(#fillGrad165)"
		fill-opacity="1.0"
		fill-rule="nonzero"
		stroke="#F88808"
		stroke-opacity="1.000"
		stroke-width="0.06397772"
		stroke-linejoin="round"
		stroke-linecap="round"
		d="M13.64,4.64Q13.83,4.53,14.01,4.73Q14.09,4.83,14.04,5.03Q13.96,5.28,13.95,5.49Q14.12,5.41,14.57,5.43Q14.70,5.43,14.72,5.56Q14.74,5.69,14.65,5.79Q14.84,5.82,14.83,5.99Q14.83,6.11,14.68,6.16Q14.81,6.21,14.78,6.36Q14.76,6.47,14.59,6.52Q14.70,6.55,14.68,6.67Q14.68,6.79,14.53,6.81Q14.26,6.85,13.52,6.79Q13.15,6.76,13.06,6.64Q12.80,6.64,12.77,6.48L12.77,5.79Q12.77,5.64,12.97,5.61Q13.29,5.49,13.42,5.36Q13.58,5.20,13.61,4.94Q13.64,4.77,13.64,4.64z"/>
	<path
		fill="#F88808"
		fill-opacity="1.000"
		fill-rule="nonzero"
		stroke="#F88808"
		stroke-opacity="1.000"
		stroke-width="0.06397772"
		stroke-linejoin="round"
		stroke-linecap="round"
		d="M13.53,6.31Q13.99,6.11,13.83,5.62Q13.90,5.50,14.09,5.50C14.08,5.58,14.07,5.67,14.05,5.75C14.04,5.84,14.01,5.92,13.99,6.00Q13.85,6.30,13.53,6.31z"/>
	<path
		fill="#F88808"
		fill-opacity="1.000"
		fill-rule="nonzero"
		stroke="#F88808"
		stroke-opacity="1.000"
		stroke-width="0.0063977726"
		stroke-linejoin="round"
		stroke-linecap="square"
		d="M13.11,6.67L13.01,6.33L12.99,6.63z"/>
	<path
		transform = "rotate(-0.00 14.29 5.62)"
		fill="url(#fillGrad188)"
		fill-opacity="1.0"
		fill-rule="nonzero"
		stroke="#F88808"
		stroke-opacity="1.000"
		stroke-width="0.06397772"
		stroke-linejoin="round"
		stroke-linecap="round"
		d="M13.86,5.59Q13.94,5.49,14.08,5.47Q14.20,5.44,14.54,5.44Q14.67,5.43,14.71,5.52Q14.76,5.67,14.67,5.74Q14.58,5.81,14.14,5.79Q14.00,5.79,13.90,5.72Q13.85,5.69,13.86,5.59z"/>
	<path
		transform = "rotate(-0.00 14.36 5.98)"
		fill="url(#fillGrad201)"
		fill-opacity="1.0"
		fill-rule="nonzero"
		stroke="#F88808"
		stroke-opacity="1.000"
		stroke-width="0.06397772"
		stroke-linejoin="round"
		stroke-linecap="round"
		d="M13.92,5.90Q14.03,5.81,14.26,5.81Q14.50,5.80,14.67,5.81Q14.84,5.83,14.82,5.98Q14.82,6.17,14.62,6.17Q14.33,6.17,14.08,6.14Q13.98,6.13,13.93,6.08Q13.86,6.01,13.92,5.90z"/>
	<path
		transform = "rotate(-0.00 14.32 6.33)"
		fill="url(#fillGrad212)"
		fill-opacity="1.0"
		fill-rule="nonzero"
		stroke="#F88808"
		stroke-opacity="1.000"
		stroke-width="0.06397772"
		stroke-linejoin="round"
		stroke-linecap="round"
		d="M13.88,6.26Q13.85,6.33,13.87,6.38Q13.95,6.49,14.50,6.51Q14.71,6.51,14.76,6.40Q14.83,6.24,14.67,6.20Q14.54,6.17,14.15,6.15Q13.99,6.15,13.88,6.26z"/>
	<path
		transform = "rotate(-0.00 14.28 6.65)"
		fill="url(#fillGrad223)"
		fill-opacity="1.0"
		fill-rule="nonzero"
		stroke="#F88808"
		stroke-opacity="1.000"
		stroke-width="0.06397772"
		stroke-linejoin="round"
		stroke-linecap="round"
		d="M13.89,6.55Q14.00,6.46,14.20,6.49Q14.36,6.50,14.55,6.53Q14.74,6.55,14.67,6.74Q14.62,6.87,14.18,6.80Q13.99,6.76,13.88,6.70Q13.85,6.61,13.89,6.55"/>
	<path
		transform = "rotate(-0.00 21.76 6.41)"
		fill="url(#fillGrad242)"
		fill-opacity="1.0"
		fill-rule="nonzero"
		stroke="#888888"
		stroke-opacity="1.000"
		stroke-width="0.0074667092"
		stroke-linejoin="round"
		stroke-linecap="round"
		d="M21.09,6.57Q21.17,6.28,21.24,6.10Q21.27,6.00,21.65,5.98Q21.78,5.98,21.92,5.98Q22.31,6.00,22.33,6.13Q22.43,6.47,22.44,6.62Q22.43,6.68,22.19,6.77Q22.08,6.80,21.90,6.83Q21.75,6.83,21.61,6.83Q21.41,6.81,21.26,6.72Q21.07,6.62,21.09,6.57z"/>
	<path
		transform = "rotate(-0.00 21.78 5.98)"
		fill="url(#fillGrad251)"
		fill-opacity="1.0"
		fill-rule="nonzero"
		stroke="#000000"
		stroke-opacity="1.000"
		stroke-width="0.0"
		stroke-linejoin="round"
		stroke-linecap="round"
		d="M21.62,6.06Q21.63,5.97,21.63,5.86Q21.73,5.86,21.93,5.86Q21.93,5.97,21.94,6.06Q21.93,6.11,21.77,6.11Q21.63,6.11,21.62,6.06z"/>
	<path
		fill="#E55C02"
		fill-opacity="1.000"
		fill-rule="nonzero"
		stroke="#E55C02"
		stroke-opacity="1.000"
		stroke-width="0.0024889032"
		stroke-linejoin="miter"
		stroke-linecap="round"
		d="M21.93,6.00Q21.96,6.00,21.96,6.05Q21.96,6.12,21.90,6.12Q21.84,6.12,21.68,6.13Q21.61,6.13,21.60,6.08Q21.59,6.02,21.61,6.01Q21.64,5.99,21.65,6.04Q21.66,6.08,21.70,6.09Q21.78,6.10,21.86,6.08Q21.89,6.06,21.91,6.02Q21.91,6.01,21.93,6.00z"/>

	<text 
		font-size="0.098479494"
		font-family="lora"
		stroke="#006EFB"
		stroke-width="0.002488903"
		stroke-opacity="1.000"
		fill-opacity="0"
		text-anchor="start"
  		transform="rotate(-0.0 32.64008 6.248825) scale(1.5874171 1.0)" >
		<tspan x="13.691337" y="6.285325">I</tspan>
	</text> 

	<text 
		font-size="0.098479494"
		font-family="lora"
		fill="#006EFB"
		stroke-width="0"
		fill-opacity="1.000"
		text-anchor="start"
  		transform="rotate(-0.0 32.64008 6.248825) scale(1.5874171 1.0)" >

		<tspan x="13.691337" y="6.285325">I</tspan>
	</text>

	<text 
		font-size="0.10221826"
		font-family="lora"
		stroke="#006EFB"
		stroke-width="0.002488903"
		stroke-opacity="1.000"
		fill-opacity="0"
		text-anchor="start"
  		transform="rotate(-0.0 32.654358 6.6521406) scale(1.1923472 1.0)" >
		<tspan x="17.888247" y="6.6896405">LIST BUILDING</tspan>
	</text> 

	<text 
		font-size="0.10221826"
		font-family="lora"
		fill="#006EFB"
		stroke-width="0"
		fill-opacity="1.000"
		text-anchor="start"
  		transform="rotate(-0.0 32.654358 6.6521406) scale(1.1923472 1.0)" >

		<tspan x="17.888247" y="6.6896405">LIST BUILDING</tspan>
	</text>
	<path
		transform = "rotate(-0.00 21.79 5.34)"
		fill="url(#fillGrad303)"
		fill-opacity="1.0"
		fill-rule="nonzero"
		stroke="#000000"
		stroke-opacity="1.000"
		stroke-width="0.0"
		stroke-linejoin="round"
		stroke-linecap="round"
		d="M21.20,5.45Q21.12,5.47,21.14,5.39Q21.15,5.32,21.14,5.22Q21.15,5.14,21.23,5.18Q21.39,4.75,21.83,4.76Q22.24,4.77,22.33,5.16Q22.46,5.14,22.44,5.24Q22.43,5.30,22.43,5.39Q22.44,5.45,22.39,5.44Q22.36,5.45,22.36,5.49Q22.34,5.64,22.31,5.68Q22.26,5.76,22.15,5.82Q22.04,5.87,21.93,5.88Q21.79,5.96,21.64,5.88Q21.50,5.87,21.39,5.78Q21.25,5.66,21.23,5.51Q21.23,5.44,21.20,5.45z"/>
	<path
		fill="#FF0000"
		fill-opacity="1.000"
		fill-rule="nonzero"
		stroke="#FF0000"
		stroke-opacity="1.000"
		stroke-width="0.003687107"
		stroke-linejoin="round"
		stroke-linecap="round"
		d="M21.84,6.31C21.88,6.31,21.92,6.34,21.92,6.39C21.92,6.44,21.88,6.48,21.84,6.48C21.79,6.48,21.75,6.44,21.75,6.39C21.75,6.34,21.79,6.31,21.84,6.31z"/>
	<path
		fill="#FF0000"
		fill-opacity="1.000"
		fill-rule="nonzero"
		stroke="#FF0000"
		stroke-opacity="1.000"
		stroke-width="0.003687107"
		stroke-linejoin="round"
		stroke-linecap="round"
		d="M21.68,6.30C21.73,6.30,21.77,6.34,21.77,6.39C21.77,6.44,21.73,6.48,21.68,6.48C21.63,6.48,21.59,6.44,21.59,6.39C21.59,6.34,21.63,6.30,21.68,6.30z"/>
	<path
		fill="#FF0000"
		fill-opacity="1.000"
		fill-rule="nonzero"
		stroke="#FF0000"
		stroke-opacity="1.000"
		stroke-width="0.003687107"
		stroke-linejoin="round"
		stroke-linecap="round"
		d="M21.76,6.59L21.86,6.49Q21.90,6.45,21.90,6.45Q21.94,6.29,21.79,6.32Q21.78,6.33,21.76,6.35Q21.75,6.33,21.73,6.32Q21.58,6.29,21.62,6.45Q21.62,6.46,21.66,6.49L21.76,6.59z"/>
	<path
		transform = "rotate(-0.00 21.76 6.44)"
		fill="url(#fillGrad359)"
		fill-opacity="1.0"
		fill-rule="nonzero"
		stroke="#F88808"
		stroke-opacity="1.000"
		stroke-width="0.0036871065"
		stroke-linejoin="round"
		stroke-linecap="round"
		d="M21.75,6.38Q21.76,6.37,21.77,6.38Q21.78,6.39,21.77,6.40Q21.77,6.41,21.77,6.43Q21.78,6.42,21.80,6.42Q21.81,6.42,21.81,6.43Q21.81,6.44,21.81,6.44Q21.82,6.45,21.82,6.45Q21.82,6.46,21.81,6.46Q21.82,6.47,21.82,6.48Q21.81,6.48,21.81,6.49Q21.81,6.49,21.81,6.49Q21.81,6.50,21.80,6.50Q21.79,6.50,21.74,6.50Q21.72,6.50,21.72,6.49Q21.70,6.49,21.70,6.48L21.70,6.44Q21.70,6.43,21.71,6.43Q21.73,6.43,21.74,6.42Q21.75,6.41,21.75,6.39Q21.75,6.38,21.75,6.38z"/>
	<path
		fill="#F88808"
		fill-opacity="1.000"
		fill-rule="nonzero"
		stroke="#F88808"
		stroke-opacity="1.000"
		stroke-width="0.0036871065"
		stroke-linejoin="round"
		stroke-linecap="round"
		d="M21.74,6.47Q21.77,6.46,21.76,6.43Q21.77,6.43,21.78,6.43C21.78,6.43,21.78,6.44,21.77,6.44C21.77,6.45,21.77,6.45,21.77,6.46Q21.76,6.47,21.74,6.47z"/>
	<path
		fill="#F88808"
		fill-opacity="1.000"
		fill-rule="nonzero"
		stroke="#F88808"
		stroke-opacity="1.000"
		stroke-width="3.6871072E-4"
		stroke-linejoin="round"
		stroke-linecap="square"
		d="M21.72,6.49L21.71,6.47L21.71,6.49z"/>
	<path
		transform = "rotate(-0.00 21.79 6.43)"
		fill="url(#fillGrad382)"
		fill-opacity="1.0"
		fill-rule="nonzero"
		stroke="#F88808"
		stroke-opacity="1.000"
		stroke-width="0.0036871065"
		stroke-linejoin="round"
		stroke-linecap="round"
		d="M21.76,6.43Q21.77,6.43,21.78,6.42Q21.78,6.42,21.80,6.42Q21.81,6.42,21.81,6.43Q21.81,6.44,21.81,6.44Q21.80,6.44,21.78,6.44Q21.77,6.44,21.77,6.44Q21.76,6.44,21.76,6.43z"/>
	<path
		transform = "rotate(-0.00 21.79 6.45)"
		fill="url(#fillGrad395)"
		fill-opacity="1.0"
		fill-rule="nonzero"
		stroke="#F88808"
		stroke-opacity="1.000"
		stroke-width="0.0036871065"
		stroke-linejoin="round"
		stroke-linecap="round"
		d="M21.77,6.45Q21.77,6.44,21.79,6.44Q21.80,6.44,21.81,6.44Q21.82,6.45,21.82,6.45Q21.82,6.46,21.81,6.46Q21.79,6.46,21.78,6.46Q21.77,6.46,21.77,6.46Q21.76,6.46,21.77,6.45z"/>
	<path
		transform = "rotate(-0.00 21.79 6.47)"
		fill="url(#fillGrad406)"
		fill-opacity="1.0"
		fill-rule="nonzero"
		stroke="#F88808"
		stroke-opacity="1.000"
		stroke-width="0.003687106"
		stroke-linejoin="round"
		stroke-linecap="round"
		d="M21.76,6.47Q21.76,6.47,21.76,6.48Q21.77,6.48,21.80,6.48Q21.81,6.48,21.81,6.48Q21.82,6.47,21.81,6.47Q21.80,6.46,21.78,6.46Q21.77,6.46,21.76,6.47z"/>
	<path
		transform = "rotate(-0.00 21.79 6.49)"
		fill="url(#fillGrad417)"
		fill-opacity="1.0"
		fill-rule="nonzero"
		stroke="#F88808"
		stroke-opacity="1.000"
		stroke-width="0.003687106"
		stroke-linejoin="round"
		stroke-linecap="round"
		d="M21.76,6.49Q21.77,6.48,21.78,6.48Q21.79,6.48,21.80,6.49Q21.81,6.49,21.81,6.50Q21.81,6.51,21.78,6.50Q21.77,6.50,21.76,6.50Q21.76,6.49,21.76,6.49"/>
	<path
		transform = "rotate(-15.19 21.62 5.35)"
		fill="url(#fillGrad418)"
		fill-opacity="1.0"
		fill-rule="nonzero"
		stroke="#FFFFFF"
		stroke-opacity="1.000"
		stroke-width="0.047289148"
		stroke-linejoin="miter"
		stroke-linecap="square"
		d="M21.62,5.26C21.67,5.26,21.71,5.30,21.71,5.35C21.71,5.40,21.67,5.44,21.62,5.44C21.57,5.44,21.53,5.40,21.53,5.35C21.53,5.30,21.57,5.26,21.62,5.26z"/>
	<path
		transform = "rotate(-15.19 21.97 5.35)"
		fill="url(#fillGrad419)"
		fill-opacity="1.0"
		fill-rule="nonzero"
		stroke="#FFFFFF"
		stroke-opacity="1.000"
		stroke-width="0.047289148"
		stroke-linejoin="miter"
		stroke-linecap="square"
		d="M21.97,5.26C22.02,5.26,22.06,5.30,22.06,5.35C22.06,5.40,22.02,5.44,21.97,5.44C21.92,5.44,21.88,5.40,21.88,5.35C21.88,5.30,21.92,5.26,21.97,5.26z"/>
	<path
		fill="#000000"
		fill-opacity="0.000"
		fill-rule="nonzero"
		stroke="#898989"
		stroke-opacity="1.000"
		stroke-width="0.019911226"
		stroke-linejoin="miter"
		stroke-linecap="square"
		d="M21.56,5.17C21.66,5.17,21.74,5.25,21.74,5.34C21.74,5.44,21.66,5.52,21.56,5.52C21.46,5.52,21.39,5.44,21.39,5.34C21.39,5.25,21.46,5.17,21.56,5.17z"/>
	<path
		fill="#000000"
		fill-opacity="0.000"
		fill-rule="nonzero"
		stroke="#898989"
		stroke-opacity="1.000"
		stroke-width="0.019911226"
		stroke-linejoin="miter"
		stroke-linecap="square"
		d="M22.02,5.17C22.11,5.17,22.19,5.25,22.19,5.34C22.19,5.44,22.11,5.52,22.02,5.52C21.92,5.52,21.84,5.44,21.84,5.34C21.84,5.25,21.92,5.17,22.02,5.17z"/>
	<path
		fill="#898989"
		fill-opacity="1.000"
		fill-rule="nonzero"
		stroke="#898989"
		stroke-opacity="1.000"
		stroke-width="0.019911226"
		stroke-linejoin="miter"
		stroke-linecap="square"
		d="M22.19,5.34L22.32,5.14L22.19,5.37z"/>
	<path
		fill="#898989"
		fill-opacity="1.000"
		fill-rule="nonzero"
		stroke="#898989"
		stroke-opacity="1.000"
		stroke-width="0.019911226"
		stroke-linejoin="miter"
		stroke-linecap="square"
		d="M21.39,5.34L21.27,5.19L21.39,5.36z"/>
	<path
		fill="#FFB67D"
		fill-opacity="0.000"
		fill-rule="nonzero"
		stroke="#B64A00"
		stroke-opacity="0.306"
		stroke-width="0.024889028"
		stroke-linejoin="round"
		stroke-linecap="square"
		d="M21.98,5.72Q21.79,5.86,21.61,5.72Q21.79,5.65,21.98,5.72z"/>
	<path
		fill="#FFFFFF"
		fill-opacity="0.776"
		fill-rule="nonzero"
		stroke="#888888"
		stroke-opacity="0.322"
		stroke-width="0.0049778065"
		stroke-linejoin="round"
		stroke-linecap="square"
		d="M21.95,5.72Q21.80,5.76,21.63,5.73Q21.79,5.67,21.95,5.72z"/>
	<path
		transform = "rotate(-0.00 21.79 5.52)"
		fill="url(#fillGrad440)"
		fill-opacity="1.0"
		fill-rule="nonzero"
		stroke="#F2C19B"
		stroke-opacity="1.000"
		stroke-width="0.0"
		stroke-linejoin="round"
		stroke-linecap="round"
		d="M21.79,5.60Q21.91,5.61,21.87,5.53Q21.85,5.46,21.79,5.44Q21.73,5.46,21.72,5.53Q21.67,5.61,21.79,5.60z"/>
	<path
		transform = "rotate(-0.00 21.80 4.89)"
		fill="url(#fillGrad489)"
		fill-opacity="1.0"
		fill-rule="nonzero"
		stroke="url(#stkGrad489)"
		stroke-opacity="1.0"
		stroke-width="0.024889028"
		stroke-linejoin="miter"
		stroke-linecap="square"
		d="M21.21,5.34Q21.26,5.17,21.19,4.95Q21.23,4.95,21.26,4.95Q21.27,4.80,21.23,4.71Q21.28,4.75,21.33,4.79Q21.32,4.66,21.17,4.64Q21.42,4.47,21.68,4.45Q21.88,4.43,22.06,4.51Q22.14,4.55,22.18,4.59Q22.18,4.55,22.17,4.53Q22.26,4.57,22.33,4.68Q22.37,4.75,22.36,4.95Q22.39,4.94,22.44,4.91Q22.33,5.13,22.36,5.33Q22.26,5.05,22.18,5.00Q22.17,5.05,22.16,5.09Q22.14,5.02,22.12,4.99Q22.08,5.10,21.85,5.13Q21.92,5.07,21.95,4.98Q21.86,4.98,21.77,5.09Q21.77,5.02,21.84,4.95Q21.72,5.01,21.66,5.07Q21.68,5.02,21.73,4.95Q21.56,5.10,21.38,5.18Q21.41,5.12,21.41,5.08Q21.27,5.12,21.21,5.34z"/>
	<path
		transform = "rotate(-0.00 22.00 5.06)"
		fill="url(#fillGrad494)"
		fill-opacity="1.0"
		fill-rule="nonzero"
		stroke="url(#stkGrad494)"
		stroke-opacity="1.0"
		stroke-width="0.0"
		stroke-linejoin="miter"
		stroke-linecap="round"
		d="M22.11,5.00Q22.07,5.06,22.01,5.08Q21.94,5.11,21.89,5.12Q22.00,5.08,22.11,5.00z"/>
	<path
		transform = "rotate(-0.00 22.37 5.05)"
		fill="url(#fillGrad497)"
		fill-opacity="1.0"
		fill-rule="nonzero"
		stroke="url(#stkGrad497)"
		stroke-opacity="1.0"
		stroke-width="0.0"
		stroke-linejoin="miter"
		stroke-linecap="round"
		d="M22.41,4.95Q22.35,5.02,22.34,5.15Q22.31,5.02,22.41,4.95z"/>
	<path
		transform = "rotate(-0.00 21.85 5.03)"
		fill="url(#fillGrad500)"
		fill-opacity="1.0"
		fill-rule="nonzero"
		stroke="url(#stkGrad500)"
		stroke-opacity="1.0"
		stroke-width="0.0"
		stroke-linejoin="miter"
		stroke-linecap="round"
		d="M21.91,4.99Q21.85,5.01,21.79,5.08Q21.82,4.98,21.91,4.99z"/>
	<path
		transform = "rotate(-0.00 21.75 5.01)"
		fill="url(#fillGrad503)"
		fill-opacity="1.0"
		fill-rule="nonzero"
		stroke="url(#stkGrad503)"
		stroke-opacity="1.0"
		stroke-width="0.0"
		stroke-linejoin="miter"
		stroke-linecap="round"
		d="M21.81,4.97Q21.76,4.99,21.69,5.05Q21.76,4.94,21.81,4.97z"/>
	<path
		transform = "rotate(-0.00 21.55 5.07)"
		fill="url(#fillGrad506)"
		fill-opacity="1.0"
		fill-rule="nonzero"
		stroke="url(#stkGrad506)"
		stroke-opacity="1.0"
		stroke-width="0.0"
		stroke-linejoin="miter"
		stroke-linecap="round"
		d="M21.68,4.97Q21.61,5.07,21.41,5.17Q21.52,5.07,21.68,4.97z"/>
	<path
		transform = "rotate(-0.00 21.30 5.20)"
		fill="url(#fillGrad509)"
		fill-opacity="1.0"
		fill-rule="nonzero"
		stroke="url(#stkGrad509)"
		stroke-opacity="1.0"
		stroke-width="0.0"
		stroke-linejoin="miter"
		stroke-linecap="round"
		d="M21.36,5.10Q21.26,5.17,21.23,5.30Q21.23,5.12,21.36,5.10z"/>
	<path
		transform = "rotate(-0.00 21.68 4.54)"
		fill="url(#fillGrad520)"
		fill-opacity="1.0"
		fill-rule="nonzero"
		stroke="url(#stkGrad520)"
		stroke-opacity="1.0"
		stroke-width="0.0"
		stroke-linejoin="miter"
		stroke-linecap="round"
		d="M21.23,4.61Q21.36,4.52,21.52,4.48Q21.67,4.46,21.84,4.47Q21.94,4.47,22.13,4.60Q21.87,4.48,21.76,4.49Q21.58,4.50,21.48,4.52Q21.37,4.57,21.23,4.61z"/>

	<text 
		font-size="3.7697265"
		font-family="comfortaa"
		stroke="#000000"
		stroke-width="0.007540485"
		stroke-opacity="1.000"
		fill-opacity="0"
		text-anchor="start"
  		transform="rotate(-0.0 13.875198 19.685833) scale(1.135545 1.0)" >
		<tspan x="5.4284844" y="21.217335">We</tspan>
	</text> 

	<text 
		font-size="3.7697265"
		font-family="comfortaa"
		fill="url(#fillGrad521)"
		stroke-width="0"
		fill-opacity="1.0"
		text-anchor="start"
  		transform="rotate(-0.0 13.875198 19.685833) scale(1.135545 1.0)" >

		<tspan x="5.4284844" y="21.217335">We</tspan>
	</text>

	<text 
		font-size="3.7139277"
		font-family="comfortaa"
		stroke="#000000"
		stroke-width="0.007540485"
		stroke-opacity="1.000"
		fill-opacity="0"
		text-anchor="start"
  		transform="rotate(-0.0 24.032913 19.713734) scale(1.1443547 1.0)" >
		<tspan x="10.779853" y="21.222734">Are</tspan>
	</text> 

	<text 
		font-size="3.7139277"
		font-family="comfortaa"
		fill="url(#fillGrad522)"
		stroke-width="0"
		fill-opacity="1.0"
		text-anchor="start"
  		transform="rotate(-0.0 24.032913 19.713734) scale(1.1443547 1.0)" >

		<tspan x="10.779853" y="21.222734">Are</tspan>
	</text>

	<text 
		font-size="3.8727245"
		font-family="comfortaa"
		stroke="#000000"
		stroke-width="0.007540485"
		stroke-opacity="1.000"
		fill-opacity="0"
		text-anchor="start"
  		transform="rotate(-0.0 37.31785 19.634335) scale(1.1031914 1.0)" >
		<tspan x="17.86445" y="21.207836">Alive</tspan>
	</text> 

	<text 
		font-size="3.8727245"
		font-family="comfortaa"
		fill="url(#fillGrad523)"
		stroke-width="0"
		fill-opacity="1.0"
		text-anchor="start"
  		transform="rotate(-0.0 37.31785 19.634335) scale(1.1031914 1.0)" >

		<tspan x="17.86445" y="21.207836">Alive</tspan>
	</text>
</svg>